<?xml version="1.0" encoding="utf-8"?>
<!-- Generator: Adobe Illustrator 16.0.0, SVG Export Plug-In . SVG Version: 6.00 Build 0)  -->
<!DOCTYPE svg PUBLIC "-//W3C//DTD SVG 1.1//EN" "http://www.w3.org/Graphics/SVG/1.1/DTD/svg11.dtd">
<svg version="1.1" id="Layer_1" xmlns="http://www.w3.org/2000/svg" xmlns:xlink="http://www.w3.org/1999/xlink" x="0px" y="0px"
	 width="300px" height="100px" viewBox="0 0 300 100" enable-background="new 0 0 300 100" xml:space="preserve">
<path fill="#F77310" d="M29.873,4.647c0.76-1.461,2.362-2.431,4.011-2.448c-0.649,0.953-1.329,1.888-2.033,2.806
	c-0.249,0.868-0.535,1.841,0.03,2.666c1.063,1.764,3.464,1.588,4.814,2.998c0.982,0.901,1.56,2.259,1.513,3.592
	c-0.436,2.392-2.269,4.447-4.563,5.219c0.837-2.242,2.546-4.399,1.944-6.932c-0.846-2.067-2.896-3.109-4.652-4.275
	C29.71,7.56,29.258,5.907,29.873,4.647z"/>
<path fill="#F77310" d="M38.647,11.22c-0.508-1.811,1.397-3.323,3.093-3.058c-0.487,1.042-0.987,2.076-1.478,3.118
	c0.773,1.717,3.105,1.269,4.046,2.802c0.354,0.564,0.517,1.226,0.751,1.845c-0.448,1.708-1.674,3.298-3.533,3.537
	c0.282-1.708,1.624-3.592,0.526-5.258C41.335,12.766,39.331,12.66,38.647,11.22z"/>
<path fill="#F77310" d="M17.27,34.221c4.665-3.49,10.466-5.049,16.166-5.758c8.186-0.688,16.812,0.013,24.138,4.02
	c3.106,1.739,6.237,4.22,7.062,7.863c0.397,1.17-0.469,2.144-1.106,3.024c-1.333,1.721-3.037,3.37-5.238,3.849
	c-2.379,0.64-4.84-0.504-6.643-2.017c-1.487-1.17-2.781-3.041-4.908-2.857c-2.453,2.089-1.611,6.633-5.033,7.731
	c-3.196-0.701-4.909-3.759-7.601-5.326c-2.422-1.666-5.763-2.149-8.408-0.714c-2.683,1.367-4.537,3.87-5.981,6.438
	c-3.098-1.914-6.617-4.562-6.814-8.518C12.562,38.731,14.907,36.074,17.27,34.221z"/>
<path fill="#0A0A0A" d="M92.742,45.651c6.332-7.406,17.447-10.418,26.586-6.928c3.904,1.452,6.587,5.168,7.344,9.188
	c1.469,7.555-0.251,15.393-3.29,22.352c-1.944,4.15-4.538,8.269-8.505,10.746c-3.321,2.135-7.623,2.046-11.236,0.751
	c-2.611-0.931-4.627-3.139-5.529-5.731c-1.461-4.079-1.119-8.517-0.713-12.75c0.636-5.288,1.824-10.635,4.503-15.295
	c1.5-2.511,3.733-4.955,6.768-5.428c1.354-0.308,2.725,0.034,4.049,0.333c-5.768,7.624-8.446,17.358-8.037,26.861
	c0.184,2.23,0.568,4.588,1.927,6.437c0.829,1.146,2.414,1.782,3.776,1.243c1.453-0.567,2.534-1.765,3.439-2.989
	c1.928-2.699,3.196-5.8,4.234-8.936c1.73-5.536,2.615-11.409,2.003-17.205c-0.303-2.515-1.08-5.257-3.247-6.804
	c-2.319-1.666-5.357-1.567-8.069-1.281c-4.688,0.491-9.468,2.887-11.672,7.223c-1.7,3.413-2.311,7.663-0.816,11.254
	c-2.025-0.129-4.52-0.397-5.614-2.379C88.82,52.788,90.333,48.503,92.742,45.651z"/>
<path fill="#0A0A0A" d="M248.921,39.91c2.604-1.128,5.911,0.593,6.446,3.387c0.683,2.626-1.354,5.45-4.029,5.728
	c-2.353,0.375-4.835-1.299-5.255-3.665C245.541,43.165,246.823,40.734,248.921,39.91z"/>
<path fill="#F77310" d="M84.031,57.297c-1.58-5.219-7.074-8.973-12.539-8.251c0.47-2.742,1.291-5.591,0.47-8.346
	c-0.991-5.249-4.959-9.4-9.416-12.062c-7.195-4.237-15.671-5.667-23.916-5.821c-8.689,0.273-17.729,1.887-25.014,6.927
	C9.34,32.606,5.991,37.245,5.59,42.477C5.568,53.868,9.101,65.52,16.586,74.254c5.024,5.856,12.15,10.184,19.93,10.87
	c2.576-0.034,5.199,0.223,7.724-0.451c8.087-1.624,14.893-7.1,19.57-13.72c2.183,2.374,5.293,4.036,8.575,3.96
	c3.584,0.226,6.81-2.051,8.891-4.793C83.979,66.541,85.45,61.685,84.031,57.297z M58.915,52.83
	c-7.065,3.4-15.046,4.489-22.822,4.126c-6.182-0.227-12.398-1.598-17.956-4.365c-3.051-1.575-5.96-3.694-7.792-6.65
	C9.063,43.908,8.7,41.255,9.699,39.03c1.252-3.054,3.896-5.262,6.639-6.958c5.704-3.417,12.355-4.831,18.913-5.395
	c7.477-0.389,15.128,0.517,22.07,3.421c3.726,1.649,7.451,3.861,9.71,7.355c1.406,2.105,1.846,4.886,0.791,7.235
	C66.182,48.538,62.525,51.011,58.915,52.83z M74.966,67.579c-2.85,2.652-8.686-0.94-6.921-4.656c0.73-2.209,1.072-4.523,1.841-6.722
	c1.188-0.462,2.47-1,3.769-0.654c2.315,0.346,4.323,2.438,4.34,4.821C78.204,63.068,76.952,65.785,74.966,67.579z"/>
<path fill="#0A0A0A" d="M250.014,77.127c-0.709-0.858-0.453-2.08-0.282-3.075c1.458-6.962,2.944-13.915,4.418-20.873
	c-2.866,0.005-5.729-0.008-8.591,0.005c-1.424,6.897-2.943,13.773-4.35,20.677c-0.248,0.815,0.043,1.973-0.852,2.442
	c-1.474,1.123-3.597,1.863-5.31,0.842c-1.19-0.77-0.768-2.372-0.605-3.529c1.444-6.812,2.874-13.628,4.337-20.437
	c-2.898,0.008-5.791-0.021-8.678,0.012c-0.094,0.488-0.188,0.982-0.273,1.475c-1.013-0.59-2.047-1.234-3.238-1.358
	c-3.842-0.32-7.86,1.029-10.514,3.875c-3.723,3.8-5.18,9.208-5.742,14.363c-0.227,1.256,0.136,2.818-0.94,3.763
	c-1.726,1.794-3.827,3.178-6.002,4.365c1.846-8.837,3.742-17.665,5.61-26.494c-2.838,0.025-5.679-0.047-8.512,0.025
	c-0.533,0.787-0.491,1.88-0.722,2.802c-0.842-1.261-2.055-2.341-3.576-2.64c-3.717-0.513-7.621,0.927-10.146,3.694
	c-3.213,3.469-4.695,8.163-5.417,12.745c-0.277,1.295-0.009,2.827-0.991,3.871c-1.852,2.169-4.179,4.1-6.964,4.881
	c-1.949,0.552-4.376-0.081-5.43-1.904c-1.021-1.678-0.692-3.712-0.565-5.565c4.692-0.744,9.488-2.998,12.079-7.146
	c1.255-2.042,1.729-4.596,1.205-6.937c-0.425-1.909-2.013-3.396-3.876-3.892c-3.631-1.024-7.831-0.414-10.762,2.063
	c-3.281,2.721-5.016,6.83-6.012,10.874c-0.767,3.465-1.255,7.091-0.572,10.614c-1.387,0.961-3.31,1.358-4.831,0.482
	c-0.905-0.551-0.935-1.772-0.709-2.695c0.871-4.122,1.781-8.234,2.641-12.356c0.832-4.216-2.641-8.91-7.032-8.923
	c-2.811,0.154-5.349,2.021-7.571,3.648C141.5,55.746,141.731,55,141.988,54c-2.88,0-5.76,0-8.64,0
	c-2.123,9-4.203,19.527-6.357,29.486c2.88,0,5.764-0.209,8.647-0.205c1.693-8.076,3.385-16.255,5.115-24.323
	c1.486-0.815,3.357-1.751,5.014-0.897c1.462,0.992,1.646,2.961,1.295,4.554c-0.765,3.822-1.632,7.606-2.388,11.43
	c-0.411,2.221-0.47,4.771,0.957,6.66c1.521,1.99,4.251,2.418,6.602,2.368c2.969-0.333,5.254-2.519,7.284-4.518
	c1.426,2.832,4.506,4.608,7.663,4.534c5.147,0.069,9.847-2.857,13.089-6.684c0.278,2.763,1.74,5.689,4.508,6.664
	c3.384,1.268,7.109-0.058,9.75-2.304c-0.227,0.859-0.431,1.722-0.62,2.593c-2.982,1.191-6.289,2.243-8.399,4.806
	c-2.156,2.627-1.765,7.324,1.448,8.937c4.148,2.069,9.817,0.647,12.335-3.313c2.152-3.172,2.502-7.077,3.387-10.707
	c2.795-1.098,5.721-2.247,7.821-4.484c0.672,2.999,3.689,4.937,6.67,4.831c3.513,0.214,6.477-2.162,8.489-4.81
	c0.662,2.699,3.345,4.271,5.989,4.403c3.759,0.525,6.78-2.289,9.434-4.532c0.394,1.282,0.923,2.631,2.071,3.43
	c1.748,1.248,4.152,1.474,6.169,0.812c2.162-0.819,3.15-3.087,3.917-5.095C252.168,77.669,250.834,78.037,250.014,77.127z
	 M170.807,57.109c0.895-1.225,2.281-2.558,3.936-2.144c1.219,0.563,1.474,2.067,1.465,3.268c-0.179,4.835-4.6,9.013-9.434,8.995
	C167.655,63.704,168.689,60.108,170.807,57.109z M189.935,92.135c-1.432,0.968-3.315-0.728-2.795-2.285
	c0.73-2.582,3.548-3.585,5.781-4.533C192.43,87.726,192.032,90.554,189.935,92.135z M195.881,74.069
	c-0.154,3.562-5.409,5.019-7.636,2.404c-0.908-1.298-0.647-2.981-0.575-4.468c0.394-3.947,1.188-7.936,3.008-11.489
	c0.978-1.807,2.489-3.694,4.678-3.917c1.667-0.106,2.889,1.273,3.703,2.551C197.986,64.122,196.919,69.093,195.881,74.069z
	 M225.055,74.43c-0.546,1.204-1.606,2.195-2.741,2.853c-2.013,0.957-4.366-0.751-4.408-2.896c-0.274-4.784,0.704-9.645,2.733-13.979
	c0.952-1.879,2.203-3.917,4.324-4.604c1.332-0.484,2.677,0.178,3.831,0.811C227.602,62.564,226.308,68.497,225.055,74.43z"/>
</svg>
