<?xml version="1.0" encoding="utf-8"?>
<!-- Generator: Adobe Illustrator 16.0.0, SVG Export Plug-In . SVG Version: 6.00 Build 0)  -->
<!DOCTYPE svg PUBLIC "-//W3C//DTD SVG 1.1//EN" "http://www.w3.org/Graphics/SVG/1.1/DTD/svg11.dtd">
<svg version="1.1" id="Layer_1" xmlns="http://www.w3.org/2000/svg" xmlns:xlink="http://www.w3.org/1999/xlink" x="0px" y="0px"
	 width="148px" height="17.333px" viewBox="0 0 148 17.333" enable-background="new 0 0 148 17.333" xml:space="preserve">
<g>
	<g>
		<path fill="#3F403F" d="M2.794,1.671c-0.098-0.097-0.21-0.173-0.337-0.229C2.329,1.387,2.194,1.36,2.049,1.36
			c-0.144,0-0.279,0.027-0.404,0.083S1.409,1.575,1.312,1.671C1.215,1.769,1.138,1.883,1.083,2.013C1.028,2.143,1,2.281,1,2.425
			c0,0.144,0.028,0.278,0.083,0.404c0.055,0.125,0.132,0.236,0.229,0.333C1.409,3.259,1.52,3.335,1.645,3.391
			c0.125,0.055,0.26,0.083,0.404,0.083c0.145,0,0.28-0.027,0.408-0.083c0.127-0.056,0.24-0.132,0.337-0.229
			c0.097-0.097,0.174-0.208,0.233-0.333c0.058-0.125,0.087-0.26,0.087-0.404c0-0.145-0.03-0.282-0.087-0.412
			C2.969,1.883,2.891,1.769,2.794,1.671z M1.3,13.506h1.482V5.072H1.3V13.506z M11.694,5.818c-0.236-0.28-0.53-0.497-0.882-0.649
			c-0.353-0.153-0.759-0.229-1.22-0.229c-0.594,0-1.118,0.125-1.57,0.375C7.57,5.564,7.161,5.891,6.794,6.296L6.678,5.38
			C6.622,5.175,6.489,5.072,6.278,5.072H5.396v8.434h1.482v-6.21C7.199,6.935,7.55,6.648,7.931,6.438
			c0.38-0.211,0.79-0.316,1.228-0.316c0.6,0,1.045,0.176,1.337,0.528c0.291,0.353,0.437,0.848,0.437,1.486v5.37h1.482v-5.37
			c0-0.477-0.061-0.913-0.183-1.307C12.108,6.435,11.93,6.098,11.694,5.818z M16.685,1.601c-0.356,0.133-0.66,0.329-0.912,0.587
			c-0.253,0.257-0.447,0.574-0.583,0.949c-0.136,0.375-0.203,0.803-0.203,1.286v0.816h-1.332v0.607c0,0.112,0.037,0.196,0.111,0.254
			c0.076,0.058,0.171,0.101,0.287,0.128l0.934,0.108v7.168h1.49V6.313h2.39V5.239h-2.439V4.465c0-0.361,0.04-0.663,0.121-0.907
			s0.195-0.441,0.346-0.591c0.149-0.15,0.328-0.258,0.537-0.325c0.208-0.066,0.439-0.1,0.695-0.1h0.258
			c0.16,0,0.286-0.011,0.374-0.034c0.089-0.022,0.136-0.088,0.142-0.2l0.033-0.74c-0.322-0.111-0.671-0.167-1.049-0.167
			C17.439,1.401,17.04,1.468,16.685,1.601z M26.612,6.122c-0.346-0.378-0.769-0.668-1.265-0.874
			c-0.497-0.206-1.053-0.309-1.669-0.309c-0.616,0-1.173,0.103-1.669,0.309s-0.92,0.496-1.27,0.874
			c-0.35,0.377-0.619,0.834-0.808,1.37c-0.188,0.535-0.283,1.134-0.283,1.794c0,0.666,0.095,1.265,0.283,1.798
			c0.189,0.533,0.458,0.988,0.808,1.366c0.349,0.377,0.773,0.667,1.27,0.869c0.497,0.203,1.053,0.304,1.669,0.304
			c0.616,0,1.172-0.101,1.669-0.304c0.497-0.203,0.919-0.492,1.265-0.869c0.348-0.377,0.614-0.833,0.799-1.366
			c0.187-0.534,0.279-1.132,0.279-1.798c0-0.66-0.093-1.259-0.279-1.794C27.226,6.956,26.959,6.499,26.612,6.122z M25.542,11.629
			c-0.41,0.558-1.032,0.836-1.864,0.836c-0.422,0-0.789-0.073-1.1-0.218c-0.311-0.144-0.57-0.35-0.778-0.619
			c-0.208-0.27-0.364-0.602-0.466-0.996c-0.103-0.394-0.155-0.841-0.155-1.34c0-0.5,0.052-0.948,0.155-1.345
			c0.102-0.396,0.257-0.731,0.466-1.003c0.208-0.272,0.467-0.48,0.778-0.625c0.311-0.144,0.678-0.216,1.1-0.216
			c0.833,0,1.454,0.28,1.864,0.841c0.411,0.561,0.616,1.343,0.616,2.348C26.158,10.292,25.953,11.071,25.542,11.629z M40.49,4.752
			c-0.263-0.413-0.578-0.78-0.944-1.099c-0.366-0.319-0.767-0.586-1.204-0.803c-0.436-0.216-0.897-0.38-1.385-0.491
			c-0.489-0.111-0.988-0.167-1.499-0.167c-0.6,0-1.174,0.079-1.724,0.237c-0.549,0.158-1.063,0.38-1.541,0.666
			c-0.477,0.286-0.91,0.63-1.299,1.032c-0.388,0.402-0.721,0.846-0.999,1.332c-0.277,0.486-0.493,1.009-0.645,1.57
			c-0.153,0.56-0.229,1.143-0.229,1.748c0,1.054,0.173,1.998,0.521,2.831c0.346,0.833,0.824,1.536,1.431,2.11
			c0.608,0.575,1.326,1.014,2.152,1.32c0.827,0.305,1.721,0.456,2.681,0.456s1.819-0.113,2.577-0.34
			c0.757-0.228,1.433-0.541,2.026-0.94l-0.208-0.55c-0.055-0.133-0.141-0.2-0.258-0.2c-0.067,0-0.142,0.025-0.225,0.075
			c-0.471,0.283-1.03,0.516-1.677,0.7c-0.647,0.184-1.392,0.274-2.236,0.274c-0.793,0-1.536-0.122-2.227-0.366
			c-0.691-0.244-1.293-0.608-1.806-1.09c-0.514-0.483-0.919-1.081-1.215-1.794c-0.297-0.713-0.446-1.541-0.446-2.485
			c0-0.805,0.139-1.548,0.417-2.231c0.277-0.684,0.658-1.274,1.141-1.773c0.483-0.5,1.05-0.891,1.698-1.174
			c0.649-0.284,1.346-0.425,2.09-0.425c0.677,0,1.308,0.096,1.894,0.288c0.585,0.191,1.093,0.48,1.523,0.866
			c0.43,0.386,0.769,0.867,1.016,1.444c0.247,0.577,0.371,1.249,0.371,2.015c0,0.482-0.054,0.922-0.162,1.32
			c-0.108,0.396-0.256,0.736-0.441,1.019c-0.187,0.284-0.401,0.503-0.645,0.658c-0.245,0.155-0.503,0.233-0.774,0.233
			c-0.128,0-0.249-0.014-0.362-0.042c-0.114-0.026-0.214-0.078-0.3-0.154c-0.086-0.075-0.154-0.178-0.204-0.308
			c-0.049-0.131-0.075-0.296-0.075-0.496c0-0.271,0.053-0.616,0.158-1.032l0.774-3.005c-0.25-0.11-0.515-0.195-0.795-0.253
			c-0.28-0.059-0.606-0.087-0.979-0.087c-0.694,0-1.306,0.122-1.836,0.366c-0.53,0.244-0.973,0.559-1.328,0.945
			c-0.355,0.385-0.623,0.818-0.803,1.299c-0.181,0.48-0.271,0.956-0.271,1.427c0,0.322,0.041,0.622,0.121,0.899
			c0.08,0.278,0.202,0.518,0.366,0.72c0.163,0.203,0.367,0.36,0.612,0.474c0.244,0.114,0.532,0.171,0.865,0.171
			c0.433,0,0.838-0.097,1.216-0.292c0.377-0.194,0.727-0.516,1.049-0.965c0.072,0.433,0.244,0.753,0.516,0.961
			c0.272,0.208,0.625,0.312,1.057,0.312c0.467,0,0.901-0.105,1.303-0.316s0.751-0.502,1.049-0.874
			c0.297-0.373,0.53-0.812,0.699-1.32c0.169-0.507,0.253-1.062,0.253-1.661c0-0.594-0.073-1.145-0.22-1.652
			C40.959,5.626,40.753,5.166,40.49,4.752z M36.298,9.119c-0.094,0.36-0.209,0.661-0.346,0.898c-0.136,0.238-0.286,0.428-0.45,0.567
			c-0.164,0.139-0.333,0.235-0.507,0.292c-0.174,0.055-0.348,0.083-0.521,0.083c-0.36,0-0.632-0.121-0.816-0.362
			c-0.183-0.242-0.274-0.562-0.274-0.962c0-0.382,0.071-0.757,0.212-1.124c0.142-0.366,0.337-0.691,0.587-0.974
			c0.25-0.282,0.548-0.512,0.895-0.686c0.347-0.175,0.729-0.263,1.145-0.263c0.256,0,0.491,0.025,0.708,0.075L36.298,9.119z
			 M43.375,13.506h1.481V1.243h-1.481V13.506z M53.819,6.122c-0.348-0.378-0.769-0.668-1.266-0.874S51.5,4.939,50.884,4.939
			c-0.616,0-1.172,0.103-1.669,0.309s-0.92,0.496-1.269,0.874c-0.35,0.377-0.619,0.834-0.808,1.37
			c-0.189,0.535-0.283,1.134-0.283,1.794c0,0.666,0.094,1.265,0.283,1.798c0.188,0.533,0.458,0.988,0.808,1.366
			c0.349,0.377,0.772,0.667,1.269,0.869c0.497,0.203,1.054,0.304,1.669,0.304c0.616,0,1.173-0.101,1.669-0.304
			c0.497-0.203,0.918-0.492,1.266-0.869c0.346-0.377,0.613-0.833,0.799-1.366c0.186-0.534,0.279-1.132,0.279-1.798
			c0-0.66-0.093-1.259-0.279-1.794C54.432,6.956,54.165,6.499,53.819,6.122z M52.749,11.629c-0.411,0.558-1.032,0.836-1.865,0.836
			c-0.421,0-0.788-0.073-1.099-0.218c-0.311-0.144-0.571-0.35-0.779-0.619c-0.208-0.27-0.364-0.602-0.466-0.996
			c-0.102-0.394-0.154-0.841-0.154-1.34c0-0.5,0.052-0.948,0.154-1.345c0.103-0.396,0.258-0.731,0.466-1.003
			c0.208-0.272,0.468-0.48,0.779-0.625c0.311-0.144,0.677-0.216,1.099-0.216c0.833,0,1.454,0.28,1.865,0.841
			c0.411,0.561,0.616,1.343,0.616,2.348C53.365,10.292,53.159,11.071,52.749,11.629z M60.596,5.052
			c-0.32-0.08-0.663-0.121-1.028-0.121c-0.467,0-0.895,0.063-1.287,0.191c-0.391,0.128-0.728,0.309-1.011,0.545
			c-0.283,0.236-0.503,0.521-0.662,0.857c-0.159,0.336-0.238,0.709-0.238,1.121c0,0.516,0.118,0.967,0.354,1.352
			c0.236,0.386,0.562,0.695,0.978,0.928c-0.177,0.09-0.333,0.191-0.466,0.309c-0.133,0.115-0.245,0.238-0.337,0.365
			c-0.092,0.128-0.16,0.256-0.205,0.386c-0.044,0.131-0.066,0.257-0.066,0.379c0,0.31,0.071,0.558,0.212,0.744
			c0.141,0.186,0.332,0.333,0.57,0.445c-0.461,0.172-0.823,0.404-1.086,0.695s-0.396,0.646-0.396,1.063
			c0,0.295,0.077,0.576,0.229,0.846c0.153,0.27,0.381,0.507,0.687,0.711c0.305,0.206,0.689,0.371,1.153,0.493
			c0.463,0.121,1.003,0.184,1.619,0.184c0.616,0,1.167-0.081,1.657-0.24c0.488-0.161,0.901-0.374,1.24-0.641
			c0.339-0.267,0.598-0.572,0.778-0.915c0.18-0.342,0.271-0.696,0.271-1.062c0-0.393-0.081-0.713-0.241-0.96
			c-0.161-0.248-0.375-0.441-0.641-0.582c-0.267-0.141-0.569-0.242-0.908-0.304c-0.339-0.062-0.684-0.092-1.036-0.092H59.7
			c-0.338,0-0.641-0.023-0.907-0.07c-0.267-0.046-0.48-0.122-0.641-0.228c-0.162-0.106-0.242-0.262-0.242-0.468
			c0-0.126,0.047-0.257,0.138-0.389c0.092-0.131,0.227-0.254,0.404-0.369c0.35,0.094,0.722,0.142,1.116,0.142
			c0.46,0,0.883-0.064,1.269-0.191c0.386-0.128,0.718-0.311,1-0.55c0.279-0.238,0.499-0.526,0.657-0.862
			c0.158-0.335,0.237-0.709,0.237-1.119c0-0.444-0.094-0.847-0.282-1.208l0.957-0.133c0.233-0.05,0.35-0.167,0.35-0.35V5.406h-2.29
			C61.204,5.25,60.914,5.132,60.596,5.052z M58.293,12.794c0.272,0.075,0.558,0.112,0.858,0.112h0.882
			c0.289,0,0.563,0.018,0.824,0.051s0.491,0.086,0.691,0.158c0.2,0.07,0.358,0.17,0.475,0.3c0.116,0.13,0.175,0.304,0.175,0.518
			c0,0.226-0.059,0.433-0.175,0.62c-0.117,0.187-0.285,0.349-0.503,0.485c-0.22,0.135-0.488,0.24-0.804,0.313
			c-0.316,0.073-0.674,0.11-1.074,0.11c-0.411,0-0.768-0.035-1.07-0.104c-0.302-0.068-0.553-0.164-0.753-0.284
			c-0.2-0.119-0.349-0.261-0.445-0.423c-0.098-0.166-0.146-0.342-0.146-0.53c0-0.3,0.098-0.559,0.295-0.775
			C57.72,13.128,57.977,12.944,58.293,12.794z M61.29,8.374c-0.078,0.208-0.194,0.387-0.349,0.538
			c-0.156,0.149-0.349,0.266-0.579,0.349c-0.23,0.083-0.496,0.125-0.794,0.125c-0.294,0-0.556-0.042-0.783-0.125
			c-0.227-0.083-0.419-0.2-0.574-0.349c-0.155-0.15-0.273-0.33-0.354-0.538c-0.08-0.208-0.121-0.438-0.121-0.687
			c0-0.517,0.157-0.927,0.471-1.232c0.313-0.306,0.767-0.458,1.361-0.458c0.599,0,1.056,0.152,1.369,0.458s0.47,0.716,0.47,1.232
			C61.407,7.936,61.368,8.166,61.29,8.374z M66.897,1.671c-0.097-0.097-0.21-0.173-0.337-0.229
			c-0.128-0.056-0.264-0.083-0.408-0.083c-0.145,0-0.279,0.027-0.404,0.083s-0.237,0.132-0.333,0.229
			c-0.097,0.098-0.173,0.211-0.229,0.342c-0.055,0.13-0.083,0.268-0.083,0.412c0,0.144,0.028,0.278,0.083,0.404
			c0.056,0.125,0.132,0.236,0.229,0.333c0.097,0.098,0.208,0.174,0.333,0.229c0.125,0.055,0.259,0.083,0.404,0.083
			c0.144,0,0.28-0.027,0.408-0.083c0.127-0.056,0.24-0.132,0.337-0.229c0.097-0.097,0.175-0.208,0.233-0.333
			c0.059-0.125,0.088-0.26,0.088-0.404c0-0.145-0.029-0.282-0.088-0.412C67.072,1.883,66.994,1.769,66.897,1.671z M65.402,13.506
			h1.482V5.072h-1.482V13.506z M75.034,11.641c-0.099,0-0.199,0.043-0.3,0.128c-0.1,0.087-0.227,0.183-0.383,0.288
			c-0.155,0.105-0.35,0.201-0.583,0.287c-0.233,0.087-0.529,0.129-0.891,0.129c-0.378,0-0.717-0.07-1.02-0.212
			c-0.302-0.14-0.559-0.346-0.77-0.615c-0.212-0.27-0.375-0.602-0.491-1c-0.117-0.397-0.175-0.85-0.175-1.361
			c0-0.489,0.055-0.93,0.163-1.324c0.108-0.394,0.269-0.73,0.483-1.007c0.213-0.277,0.479-0.49,0.795-0.637
			c0.316-0.147,0.679-0.22,1.09-0.22c0.311,0,0.574,0.035,0.787,0.104c0.213,0.07,0.396,0.146,0.546,0.229
			c0.15,0.083,0.272,0.16,0.37,0.229c0.097,0.069,0.188,0.104,0.27,0.104c0.084,0,0.147-0.016,0.192-0.049
			c0.044-0.033,0.089-0.081,0.133-0.142l0.392-0.533c-0.35-0.35-0.753-0.621-1.206-0.812c-0.457-0.191-0.978-0.288-1.566-0.288
			c-0.639,0-1.204,0.109-1.698,0.325c-0.494,0.217-0.909,0.518-1.245,0.903c-0.335,0.386-0.591,0.845-0.765,1.378
			c-0.176,0.533-0.263,1.113-0.263,1.74c0,0.689,0.095,1.301,0.287,1.839c0.191,0.539,0.453,0.992,0.787,1.361
			c0.333,0.37,0.726,0.652,1.178,0.845c0.453,0.195,0.942,0.292,1.47,0.292c0.61,0,1.19-0.104,1.74-0.312
			c0.55-0.208,1.008-0.537,1.374-0.986l-0.417-0.542C75.257,11.688,75.162,11.641,75.034,11.641z M81.895,9.443
			c-0.205-0.166-0.438-0.305-0.699-0.416c-0.261-0.111-0.528-0.212-0.803-0.304c-0.275-0.092-0.543-0.177-0.805-0.258
			c-0.261-0.081-0.494-0.174-0.698-0.279c-0.206-0.105-0.371-0.23-0.496-0.374c-0.125-0.145-0.188-0.325-0.188-0.542
			c0-0.172,0.038-0.332,0.113-0.479c0.074-0.147,0.184-0.277,0.324-0.387c0.142-0.112,0.313-0.199,0.512-0.263
			c0.2-0.063,0.425-0.096,0.674-0.096c0.29,0,0.539,0.033,0.75,0.096c0.21,0.063,0.393,0.133,0.546,0.208
			c0.152,0.075,0.28,0.143,0.387,0.204c0.105,0.061,0.199,0.092,0.282,0.092c0.14,0,0.242-0.061,0.309-0.183l0.333-0.542
			c-0.321-0.305-0.704-0.545-1.145-0.72c-0.441-0.175-0.939-0.263-1.494-0.263c-0.478,0-0.902,0.067-1.273,0.201
			c-0.372,0.132-0.686,0.312-0.941,0.536c-0.255,0.225-0.449,0.486-0.583,0.783C76.866,6.756,76.8,7.065,76.8,7.387
			c0,0.361,0.063,0.667,0.188,0.92c0.124,0.253,0.289,0.465,0.495,0.637c0.205,0.172,0.439,0.315,0.703,0.429
			s0.533,0.215,0.808,0.304c0.274,0.089,0.543,0.173,0.808,0.254c0.264,0.08,0.498,0.175,0.703,0.283
			c0.206,0.108,0.371,0.239,0.495,0.391c0.126,0.154,0.188,0.345,0.188,0.578c0,0.19-0.034,0.367-0.104,0.533
			c-0.068,0.167-0.176,0.315-0.319,0.442c-0.145,0.127-0.325,0.229-0.541,0.304c-0.217,0.074-0.47,0.112-0.758,0.112
			c-0.339,0-0.62-0.039-0.845-0.117c-0.226-0.078-0.417-0.164-0.575-0.258c-0.157-0.095-0.292-0.18-0.403-0.258
			c-0.11-0.078-0.217-0.117-0.317-0.117c-0.099,0-0.18,0.02-0.241,0.058c-0.062,0.039-0.113,0.095-0.158,0.167l-0.349,0.566
			c0.333,0.3,0.738,0.545,1.216,0.737c0.477,0.192,1.01,0.288,1.598,0.288c0.516,0,0.971-0.071,1.365-0.208
			c0.395-0.138,0.727-0.329,0.999-0.57c0.271-0.242,0.478-0.527,0.615-0.858c0.14-0.33,0.209-0.689,0.209-1.077
			c0-0.339-0.062-0.629-0.188-0.87C82.265,9.813,82.1,9.61,81.895,9.443z M91.069,6.026c-0.278-0.363-0.614-0.638-1.008-0.824
			s-0.833-0.279-1.314-0.279c-0.606,0-1.14,0.133-1.604,0.399c-0.465,0.266-0.876,0.619-1.236,1.058l-0.124-1
			c-0.057-0.205-0.189-0.308-0.4-0.308h-0.882v11.289h1.481v-3.73c0.282,0.316,0.608,0.562,0.979,0.733
			c0.368,0.172,0.813,0.258,1.335,0.258c0.567,0,1.075-0.113,1.528-0.337c0.453-0.225,0.834-0.533,1.145-0.924
			c0.311-0.391,0.55-0.855,0.717-1.39c0.165-0.536,0.249-1.114,0.249-1.736c0-0.699-0.075-1.318-0.224-1.856
			C91.561,6.84,91.347,6.39,91.069,6.026z M89.771,11.633c-0.423,0.561-1.023,0.84-1.808,0.84c-0.399,0-0.762-0.075-1.085-0.225
			c-0.326-0.149-0.624-0.407-0.896-0.773v-4.08c0.305-0.405,0.64-0.719,1.003-0.941c0.363-0.222,0.786-0.333,1.27-0.333
			c0.339,0,0.642,0.059,0.907,0.175c0.267,0.117,0.491,0.301,0.675,0.554c0.183,0.252,0.323,0.575,0.42,0.969
			c0.098,0.395,0.146,0.866,0.146,1.415C90.403,10.273,90.191,11.072,89.771,11.633z M93.857,13.506h1.481V5.072h-1.481V13.506z
			 M95.352,1.671c-0.097-0.097-0.21-0.173-0.337-0.229c-0.128-0.056-0.264-0.083-0.409-0.083c-0.143,0-0.277,0.027-0.403,0.083
			c-0.124,0.056-0.235,0.132-0.332,0.229c-0.098,0.098-0.173,0.211-0.229,0.342c-0.056,0.13-0.083,0.268-0.083,0.412
			c0,0.144,0.027,0.278,0.083,0.404c0.057,0.125,0.132,0.236,0.229,0.333c0.097,0.098,0.208,0.174,0.332,0.229
			c0.126,0.055,0.261,0.083,0.403,0.083c0.146,0,0.281-0.027,0.409-0.083c0.127-0.056,0.24-0.132,0.337-0.229
			c0.098-0.097,0.176-0.208,0.232-0.333c0.06-0.125,0.089-0.26,0.089-0.404c0-0.145-0.029-0.282-0.089-0.412
			C95.527,1.883,95.449,1.769,95.352,1.671z M103.49,11.641c-0.101,0-0.2,0.043-0.301,0.128c-0.099,0.087-0.228,0.183-0.383,0.288
			c-0.155,0.105-0.35,0.201-0.582,0.287c-0.233,0.087-0.53,0.129-0.892,0.129c-0.377,0-0.717-0.07-1.02-0.212
			c-0.303-0.14-0.559-0.346-0.77-0.615c-0.212-0.27-0.375-0.602-0.492-1c-0.116-0.397-0.175-0.85-0.175-1.361
			c0-0.489,0.055-0.93,0.163-1.324c0.108-0.394,0.27-0.73,0.483-1.007c0.213-0.277,0.478-0.49,0.794-0.637
			c0.316-0.147,0.68-0.22,1.091-0.22c0.311,0,0.573,0.035,0.787,0.104c0.213,0.07,0.396,0.146,0.544,0.229
			c0.15,0.083,0.274,0.16,0.372,0.229c0.097,0.069,0.187,0.104,0.27,0.104c0.084,0,0.147-0.016,0.191-0.049
			c0.045-0.033,0.089-0.081,0.135-0.142l0.391-0.533c-0.35-0.35-0.753-0.621-1.208-0.812c-0.455-0.191-0.976-0.288-1.564-0.288
			c-0.639,0-1.205,0.109-1.698,0.325c-0.494,0.217-0.908,0.518-1.245,0.903c-0.336,0.386-0.591,0.845-0.766,1.378
			c-0.174,0.533-0.262,1.113-0.262,1.74c0,0.689,0.096,1.301,0.287,1.839c0.191,0.539,0.453,0.992,0.786,1.361
			c0.333,0.37,0.726,0.652,1.179,0.845c0.451,0.195,0.94,0.292,1.469,0.292c0.61,0,1.19-0.104,1.74-0.312
			c0.55-0.208,1.008-0.537,1.373-0.986l-0.416-0.542C103.712,11.688,103.617,11.641,103.49,11.641z M111.574,5.926
			c-0.313-0.319-0.681-0.563-1.108-0.732s-0.894-0.254-1.399-0.254c-0.609,0-1.16,0.107-1.647,0.32
			c-0.489,0.214-0.902,0.508-1.239,0.883c-0.339,0.374-0.6,0.816-0.779,1.328c-0.182,0.511-0.271,1.06-0.271,1.648
			c0,0.727,0.101,1.37,0.3,1.932c0.2,0.561,0.479,1.03,0.837,1.411c0.359,0.38,0.782,0.668,1.273,0.865
			c0.491,0.197,1.029,0.296,1.612,0.296c0.305,0,0.613-0.026,0.924-0.079c0.311-0.053,0.612-0.132,0.903-0.238
			s0.564-0.24,0.818-0.404c0.257-0.164,0.476-0.357,0.658-0.578l-0.415-0.542c-0.067-0.094-0.161-0.141-0.284-0.141
			c-0.095,0-0.207,0.043-0.337,0.128c-0.13,0.087-0.292,0.179-0.485,0.28c-0.195,0.1-0.427,0.192-0.698,0.279
			c-0.268,0.086-0.588,0.129-0.96,0.129c-0.399,0-0.761-0.065-1.082-0.196c-0.322-0.13-0.601-0.327-0.832-0.591
			c-0.234-0.263-0.418-0.592-0.551-0.986c-0.132-0.394-0.204-0.858-0.216-1.391h5.611c0.139,0,0.232-0.039,0.283-0.116
			c0.051-0.078,0.074-0.234,0.074-0.467c0-0.599-0.087-1.133-0.261-1.603C112.128,6.64,111.885,6.245,111.574,5.926z M106.646,8.369
			c0.099-0.732,0.354-1.305,0.766-1.719c0.41-0.413,0.974-0.62,1.689-0.62c0.339,0,0.639,0.057,0.903,0.17
			c0.263,0.115,0.486,0.275,0.67,0.483c0.183,0.208,0.321,0.456,0.417,0.741c0.094,0.286,0.142,0.601,0.142,0.944H106.646z
			 M115.743,11.85c-0.094-0.094-0.205-0.17-0.332-0.226c-0.127-0.055-0.264-0.083-0.409-0.083c-0.145,0-0.279,0.028-0.407,0.083
			c-0.128,0.055-0.236,0.131-0.328,0.226c-0.092,0.094-0.166,0.206-0.217,0.332c-0.054,0.128-0.079,0.264-0.079,0.408
			c0,0.15,0.025,0.287,0.079,0.412c0.051,0.125,0.125,0.234,0.217,0.329s0.2,0.168,0.328,0.22c0.128,0.053,0.263,0.079,0.407,0.079
			c0.146,0,0.282-0.026,0.409-0.079c0.127-0.052,0.238-0.125,0.332-0.22c0.096-0.095,0.168-0.205,0.222-0.329
			c0.052-0.125,0.079-0.262,0.079-0.412c0-0.145-0.027-0.28-0.079-0.408C115.911,12.056,115.839,11.943,115.743,11.85z
			 M123.52,11.641c-0.1,0-0.2,0.043-0.3,0.128c-0.1,0.087-0.228,0.183-0.383,0.288c-0.155,0.105-0.351,0.201-0.583,0.287
			c-0.233,0.087-0.531,0.129-0.891,0.129c-0.377,0-0.718-0.07-1.02-0.212c-0.304-0.14-0.56-0.346-0.771-0.615
			c-0.211-0.27-0.374-0.602-0.491-1c-0.116-0.397-0.176-0.85-0.176-1.361c0-0.489,0.056-0.93,0.163-1.324
			c0.108-0.394,0.27-0.73,0.483-1.007s0.479-0.49,0.795-0.637c0.316-0.147,0.68-0.22,1.09-0.22c0.311,0,0.573,0.035,0.788,0.104
			c0.213,0.07,0.396,0.146,0.545,0.229c0.149,0.083,0.272,0.16,0.37,0.229c0.097,0.069,0.188,0.104,0.271,0.104
			s0.147-0.016,0.19-0.049c0.046-0.033,0.089-0.081,0.135-0.142l0.391-0.533c-0.349-0.35-0.752-0.621-1.207-0.812
			c-0.454-0.191-0.977-0.288-1.565-0.288c-0.638,0-1.204,0.109-1.698,0.325c-0.494,0.217-0.908,0.518-1.244,0.903
			c-0.336,0.386-0.591,0.845-0.767,1.378c-0.175,0.533-0.263,1.113-0.263,1.74c0,0.689,0.097,1.301,0.288,1.839
			c0.192,0.539,0.453,0.992,0.787,1.361c0.333,0.37,0.726,0.652,1.179,0.845c0.451,0.195,0.941,0.292,1.468,0.292
			c0.611,0,1.19-0.104,1.741-0.312c0.549-0.208,1.008-0.537,1.373-0.986l-0.416-0.542C123.741,11.688,123.647,11.641,123.52,11.641z
			 M132.106,6.122c-0.347-0.378-0.769-0.668-1.266-0.874s-1.053-0.309-1.668-0.309c-0.616,0-1.174,0.103-1.67,0.309
			c-0.497,0.206-0.921,0.496-1.27,0.874c-0.351,0.377-0.62,0.834-0.808,1.37c-0.189,0.535-0.284,1.134-0.284,1.794
			c0,0.666,0.095,1.265,0.284,1.798c0.188,0.533,0.457,0.988,0.808,1.366c0.349,0.377,0.772,0.667,1.27,0.869
			c0.496,0.203,1.054,0.304,1.67,0.304c0.615,0,1.171-0.101,1.668-0.304c0.497-0.203,0.919-0.492,1.266-0.869
			c0.347-0.377,0.613-0.833,0.8-1.366c0.186-0.534,0.278-1.132,0.278-1.798c0-0.66-0.093-1.259-0.278-1.794
			C132.72,6.956,132.453,6.499,132.106,6.122z M131.037,11.629c-0.412,0.558-1.033,0.836-1.864,0.836
			c-0.423,0-0.789-0.073-1.1-0.218c-0.311-0.144-0.57-0.35-0.778-0.619c-0.209-0.27-0.364-0.602-0.467-0.996
			c-0.103-0.394-0.153-0.841-0.153-1.34c0-0.5,0.051-0.948,0.153-1.345c0.103-0.396,0.258-0.731,0.467-1.003
			c0.208-0.272,0.468-0.48,0.778-0.625c0.311-0.144,0.677-0.216,1.1-0.216c0.831,0,1.452,0.28,1.864,0.841
			c0.411,0.561,0.616,1.343,0.616,2.348C131.653,10.292,131.448,11.071,131.037,11.629z M146.256,6.775
			c-0.129-0.396-0.313-0.731-0.554-1.003c-0.241-0.272-0.536-0.479-0.884-0.62c-0.346-0.142-0.742-0.213-1.186-0.213
			c-0.276,0-0.551,0.034-0.82,0.1c-0.27,0.066-0.522,0.172-0.761,0.316c-0.238,0.145-0.453,0.328-0.646,0.55
			c-0.191,0.222-0.346,0.486-0.463,0.791c-0.155-0.538-0.409-0.965-0.761-1.282c-0.354-0.316-0.814-0.475-1.387-0.475
			c-0.511,0-0.958,0.123-1.345,0.366c-0.386,0.245-0.734,0.558-1.045,0.941l-0.107-0.866c-0.057-0.205-0.189-0.308-0.4-0.308h-0.883
			v8.434h1.482V7.22c0.261-0.339,0.548-0.606,0.862-0.803c0.313-0.197,0.652-0.295,1.02-0.295c0.521,0,0.917,0.167,1.19,0.5
			c0.271,0.333,0.407,0.838,0.407,1.515v5.37h1.482v-5.37c0-0.333,0.048-0.625,0.146-0.878c0.098-0.252,0.229-0.461,0.396-0.628
			c0.165-0.167,0.358-0.293,0.578-0.379s0.45-0.129,0.695-0.129c0.55,0,0.969,0.17,1.257,0.512c0.289,0.341,0.432,0.843,0.432,1.502
			v5.37h1.482v-5.37C146.446,7.625,146.383,7.172,146.256,6.775z"/>
	</g>
</g>
</svg>
